<svg width="82" height="6" viewBox="0 0 82 6" fill="none" xmlns="http://www.w3.org/2000/svg">
<path d="M70.2584 0.14995C70.3512 0.294837 70.4344 0.444734 70.5075 0.598825C70.5445 0.725168 70.5688 0.85434 70.5802 0.984735L70.2841 1.25391C66.8647 1.11435 63.4139 1.10662 59.9648 1.14823C56.5156 1.18984 53.0717 1.22998 49.6269 1.4395C49.8101 1.44724 49.9933 1.45644 50.1765 1.46197C53.1207 1.54998 56.0652 1.63098 59.009 1.7282C60.1909 1.76723 61.3705 1.84566 62.5517 1.90016C65.2411 2.02499 67.9326 2.13362 70.6208 2.27245C72.7562 2.38292 74.8891 2.52321 77.0221 2.65983C78.3013 2.74194 79.579 2.84026 80.8566 2.936C81.1314 2.95662 81.4034 2.99603 81.7003 3.02953C81.7438 3.15353 81.8102 3.26975 81.8967 3.3731C82.0607 3.51671 81.9819 3.65553 81.9437 3.79583C81.9005 3.91857 81.848 4.03842 81.7867 4.15449C81.5593 4.14565 81.3604 4.14307 81.1631 4.12945C79.8349 4.03518 78.5069 3.94006 77.1792 3.84407C77.0052 3.81791 76.8282 3.81346 76.6529 3.83081C76.0552 3.90683 75.4494 3.91227 74.8502 3.84701C71.9313 3.7266 69.0089 3.69125 66.0861 3.67063C63.2395 3.65111 60.393 3.60472 57.5461 3.60803C54.1966 3.61208 50.8471 3.65258 47.4976 3.68573C45.4827 3.70561 43.4674 3.73066 41.453 3.77374C39.8423 3.80798 38.2324 3.86506 36.623 3.92582C33.9566 4.02622 31.2906 4.13301 28.625 4.24618C26.7893 4.32351 24.9533 4.40342 23.1208 4.4999C21.6138 4.57907 20.1076 4.68401 18.6034 4.77644C17.6745 4.83314 16.7448 4.8788 15.8171 4.94361C14.0617 5.06636 12.3073 5.19438 10.554 5.32768C9.42905 5.41311 8.30009 5.50149 7.17916 5.60975C6.35589 5.66333 5.53909 5.7811 4.73763 5.96178C4.32783 6.06709 4.10926 5.94374 4.10404 5.62669C4.10404 5.53353 4.12213 5.44036 4.12454 5.3472C4.12454 5.27355 4.1169 5.19991 4.11047 5.09349C3.89633 5.10822 3.70508 5.12332 3.51384 5.13473C3.36349 5.14794 3.21249 5.15408 3.06145 5.15314C2.5946 5.1373 2.47448 5.0504 2.38409 4.68548C2.36721 4.61663 2.34872 4.54739 2.32743 4.46454C1.96846 4.45359 1.6093 4.47978 1.25673 4.54261C1.05946 4.57244 0.865 4.61626 0.666528 4.63872C0.332661 4.67812 0.120938 4.57501 0.0614762 4.33824C0.0318962 4.18668 0.0113695 4.03376 0 3.88015C0.297125 3.72685 0.625217 3.63063 0.964248 3.59735C2.2392 3.35314 3.52886 3.17866 4.82641 3.07483C6.92979 2.90888 9.03411 2.75041 11.1394 2.59944C12.6679 2.48774 14.1973 2.38144 15.7275 2.28055C17.1068 2.18886 18.4873 2.10932 19.8657 2.01653C21.7717 1.88838 23.6765 1.7525 25.5816 1.62031C26.8858 1.52947 28.1899 1.43852 29.494 1.34745C31.9263 1.17658 34.3578 1.0002 36.7909 0.835601C37.7684 0.769319 38.7495 0.728812 39.7286 0.673577C40.9339 0.605822 42.1392 0.52297 43.3445 0.468103C45.3557 0.376413 47.3682 0.303134 49.3802 0.218808C53.6582 0.0409514 57.9378 -0.00212982 62.2231 7.95819e-05C63.8856 7.95819e-05 65.5478 0.0132113 67.2098 0.0394786C68.2082 0.0549444 69.2126 0.110549 70.2584 0.14995ZM18.9999 3.18567C19.7138 3.24901 26.9034 2.9975 27.8279 2.90544C27.8641 2.90176 27.8942 2.86494 27.9271 2.84321C27.9191 2.68892 27.8098 2.59465 27.6033 2.59686C27.2514 2.60054 26.8986 2.61196 26.5483 2.63663C25.2956 2.72464 24.0441 2.82075 22.7918 2.91207C21.5278 3.00413 20.2639 3.09533 18.9999 3.18567Z" fill="white"/>
</svg>
