<svg width="133" height="88" viewBox="0 0 133 88" fill="none" xmlns="http://www.w3.org/2000/svg">
<path d="M0.155884 71.7273H4.72726L8.6051 81.1832H8.78408L12.6619 71.7273H17.2333V87H13.6388V77.6186H13.5121L9.84303 86.9031H7.54615L3.87712 77.5664H3.75034V87H0.155884V71.7273Z" fill="white"/>
<path d="M18.7751 71.7273H22.899L26.1281 78.1183H26.2623L29.4914 71.7273H33.6153L28.0297 81.8991V87H24.3607V81.8991L18.7751 71.7273Z" fill="white"/>
<path d="M53.5377 77.2607H49.809C49.7593 76.8778 49.6574 76.5323 49.5033 76.2241C49.3492 75.9158 49.1453 75.6523 48.8918 75.4336C48.6382 75.2148 48.3374 75.0483 47.9894 74.934C47.6464 74.8146 47.2661 74.755 46.8484 74.755C46.1077 74.755 45.4688 74.9364 44.9319 75.2994C44.3999 75.6623 43.9898 76.1868 43.7014 76.8729C43.418 77.559 43.2764 78.3892 43.2764 79.3636C43.2764 80.3778 43.4205 81.228 43.7089 81.9141C44.0022 82.5952 44.4124 83.1097 44.9394 83.4577C45.4713 83.8008 46.1002 83.9723 46.8261 83.9723C47.2337 83.9723 47.6041 83.9201 47.9372 83.8157C48.2753 83.7113 48.5711 83.5597 48.8247 83.3608C49.0832 83.157 49.2945 82.9109 49.4585 82.6225C49.6276 82.3292 49.7444 81.9986 49.809 81.6307L53.5377 81.6531C53.4731 82.3292 53.2767 82.9954 52.9486 83.6516C52.6254 84.3079 52.1805 84.907 51.6137 85.4489C51.047 85.9858 50.3559 86.4134 49.5406 86.7315C48.7302 87.0497 47.8005 87.2088 46.7515 87.2088C45.3694 87.2088 44.1315 86.9055 43.0377 86.299C41.9489 85.6875 41.0889 84.7976 40.4575 83.6293C39.8261 82.4609 39.5104 81.0391 39.5104 79.3636C39.5104 77.6832 39.831 76.2589 40.4724 75.0906C41.1137 73.9222 41.9813 73.0348 43.075 72.4283C44.1688 71.8217 45.3943 71.5185 46.7515 71.5185C47.6762 71.5185 48.5313 71.6477 49.3168 71.9062C50.1024 72.1598 50.7934 72.5327 51.39 73.0249C51.9866 73.5121 52.4713 74.1112 52.8442 74.8221C53.2171 75.533 53.4482 76.3459 53.5377 77.2607Z" fill="white"/>
<path d="M70.0652 79.3636C70.0652 81.044 69.742 82.4684 69.0957 83.6367C68.4494 84.805 67.5744 85.6925 66.4707 86.299C65.372 86.9055 64.139 87.2088 62.7718 87.2088C61.3997 87.2088 60.1642 86.9031 59.0655 86.2915C57.9668 85.68 57.0943 84.7926 56.448 83.6293C55.8066 82.4609 55.486 81.0391 55.486 79.3636C55.486 77.6832 55.8066 76.2589 56.448 75.0906C57.0943 73.9222 57.9668 73.0348 59.0655 72.4283C60.1642 71.8217 61.3997 71.5185 62.7718 71.5185C64.139 71.5185 65.372 71.8217 66.4707 72.4283C67.5744 73.0348 68.4494 73.9222 69.0957 75.0906C69.742 76.2589 70.0652 77.6832 70.0652 79.3636ZM66.2917 79.3636C66.2917 78.3693 66.15 77.5291 65.8666 76.843C65.5882 76.157 65.1855 75.6374 64.6585 75.2844C64.1365 74.9315 63.5076 74.755 62.7718 74.755C62.041 74.755 61.4121 74.9315 60.8851 75.2844C60.3581 75.6374 59.9529 76.157 59.6696 76.843C59.3911 77.5291 59.2519 78.3693 59.2519 79.3636C59.2519 80.358 59.3911 81.1982 59.6696 81.8842C59.9529 82.5703 60.3581 83.0898 60.8851 83.4428C61.4121 83.7958 62.041 83.9723 62.7718 83.9723C63.5076 83.9723 64.1365 83.7958 64.6585 83.4428C65.1855 83.0898 65.5882 82.5703 65.8666 81.8842C66.15 81.1982 66.2917 80.358 66.2917 79.3636Z" fill="white"/>
<path d="M72.2203 71.7273H76.7917L80.6696 81.1832H80.8485L84.7264 71.7273H89.2978V87H85.7033V77.6186H85.5765L81.9075 86.9031H79.6106L75.9416 77.5664H75.8148V87H72.2203V71.7273Z" fill="white"/>
<path d="M91.6002 87V71.7273H97.9092C99.0526 71.7273 100.039 71.951 100.87 72.3984C101.705 72.8409 102.349 73.4599 102.801 74.2553C103.254 75.0458 103.48 75.9656 103.48 77.0146C103.48 78.0685 103.249 78.9908 102.786 79.7812C102.329 80.5668 101.675 81.1758 100.825 81.6083C99.9749 82.0408 98.9656 82.2571 97.7973 82.2571H93.9045V79.3487H97.1112C97.668 79.3487 98.1329 79.2518 98.5058 79.0579C98.8836 78.864 99.1695 78.593 99.3634 78.245C99.5572 77.892 99.6542 77.4819 99.6542 77.0146C99.6542 76.5423 99.5572 76.1346 99.3634 75.7915C99.1695 75.4435 98.8836 75.1751 98.5058 74.9862C98.1279 74.7972 97.6631 74.7028 97.1112 74.7028H95.2916V87H91.6002Z" fill="white"/>
<path d="M104.8 74.7251V71.7273H117.709V74.7251H113.077V87H109.438V74.7251H104.8Z" fill="white"/>
<path d="M120.908 87H116.94L122.093 71.7273H127.008L132.161 87H128.194L124.607 75.5753H124.487L120.908 87ZM120.378 80.9893H128.671V83.7933H120.378V80.9893Z" fill="white"/>
<path d="M100.5 31.5824C100.5 4.35594 80.1667 -0.750559 71 0.0827747C52 0.0827747 27 16.0828 27 34.0828C27 52.0828 57 58.5828 67.5 58.0828C78 57.5828 100.5 54.582 100.5 31.5824Z" fill="white"/>
<path d="M41 17.5H48.7629L55.348 33.5977H55.652L62.2371 17.5L70 14V53L63.8961 49V27.5293H63.6808L57.4502 43.335H53.5498L47.3192 27.4404H47.1039V43.5H41V17.5Z" fill="#025EAC"/>
<path d="M92 37.9609C91.8601 39.4259 91.4359 40.8698 90.7256 42.2918C90.0259 43.7137 89.0617 45.0113 87.8347 46.1855C86.6076 47.349 85.1119 48.2764 83.3466 48.9659C81.5921 49.6554 79.5792 50 77.3081 50C75.7919 50 74.3559 49.8294 73 49.492V41.5952C73.1249 41.6918 73.2524 41.7844 73.384 41.8714C74.5356 42.6147 75.8975 42.9859 77.4689 42.986C78.3515 42.986 79.1538 42.8735 79.8749 42.6473C80.6069 42.4211 81.2472 42.0921 81.7962 41.6612C82.3559 41.2196 82.8138 40.6863 83.169 40.0615C83.5348 39.426 83.7875 38.7098 83.9274 37.9128L92 37.9609Z" fill="black"/>
<path d="M77.3081 16C79.31 16 81.1612 16.2806 82.8618 16.8407C84.5625 17.3901 86.0594 18.1979 87.3511 19.2644C88.6427 20.3201 89.6915 21.6189 90.4988 23.1593C91.3059 24.6997 91.8062 26.4607 92 28.4427H83.9274C83.8198 27.6134 83.5998 26.8645 83.2662 26.1968C82.9325 25.5288 82.4903 24.9581 81.9414 24.4841C81.3925 24.0102 80.7411 23.6497 79.9877 23.402C79.2452 23.1435 78.4221 23.0141 77.5181 23.014C75.9143 23.014 74.5309 23.407 73.3684 24.1934C73.2425 24.2794 73.1196 24.3693 73 24.4637V16.5236C74.3606 16.1759 75.7965 16 77.3081 16Z" fill="black"/>
</svg>
