<svg width="245" height="59" viewBox="0 0 245 59" fill="none" xmlns="http://www.w3.org/2000/svg">
<path d="M86.3761 19.8182H91.8182L96.4347 31.0753H96.6477L101.264 19.8182H106.706V38H102.427V26.8317H102.276L97.9084 37.8846H95.174L90.8061 26.7695H90.6552V38H86.3761V19.8182ZM108.542 19.8182H113.451L117.295 27.4265H117.455L121.299 19.8182H126.209L119.559 31.9276V38H115.191V31.9276L108.542 19.8182ZM149.926 26.4055H145.487C145.428 25.9498 145.306 25.5385 145.123 25.1715C144.939 24.8046 144.697 24.4909 144.395 24.2305C144.093 23.9701 143.735 23.7718 143.321 23.6357C142.912 23.4936 142.46 23.4226 141.962 23.4226C141.081 23.4226 140.32 23.6386 139.681 24.0707C139.048 24.5027 138.559 25.1271 138.216 25.9439C137.879 26.7607 137.71 27.7491 137.71 28.9091C137.71 30.1165 137.882 31.1286 138.225 31.9453C138.574 32.7562 139.062 33.3687 139.69 33.783C140.323 34.1914 141.072 34.3956 141.936 34.3956C142.421 34.3956 142.862 34.3335 143.259 34.2092C143.661 34.0849 144.013 33.9044 144.315 33.6676C144.623 33.425 144.874 33.132 145.07 32.7887C145.271 32.4395 145.41 32.0459 145.487 31.608L149.926 31.6346C149.849 32.4395 149.615 33.2326 149.225 34.0138C148.84 34.7951 148.31 35.5083 147.635 36.1534C146.961 36.7926 146.138 37.3016 145.167 37.6804C144.203 38.0592 143.096 38.2486 141.847 38.2486C140.202 38.2486 138.728 37.8875 137.426 37.1655C136.13 36.4375 135.106 35.3781 134.354 33.9872C133.602 32.5964 133.227 30.9036 133.227 28.9091C133.227 26.9086 133.608 25.2129 134.372 23.8221C135.135 22.4312 136.168 21.3748 137.47 20.6527C138.772 19.9306 140.231 19.5696 141.847 19.5696C142.948 19.5696 143.966 19.7235 144.901 20.0312C145.836 20.3331 146.659 20.777 147.369 21.3629C148.079 21.9429 148.656 22.6561 149.1 23.5025C149.544 24.3488 149.819 25.3165 149.926 26.4055ZM169.601 28.9091C169.601 30.9096 169.217 32.6052 168.447 33.9961C167.678 35.387 166.636 36.4434 165.322 37.1655C164.014 37.8875 162.546 38.2486 160.919 38.2486C159.285 38.2486 157.815 37.8846 156.507 37.1566C155.199 36.4286 154.16 35.3722 153.39 33.9872C152.627 32.5964 152.245 30.9036 152.245 28.9091C152.245 26.9086 152.627 25.2129 153.39 23.8221C154.16 22.4312 155.199 21.3748 156.507 20.6527C157.815 19.9306 159.285 19.5696 160.919 19.5696C162.546 19.5696 164.014 19.9306 165.322 20.6527C166.636 21.3748 167.678 22.4312 168.447 23.8221C169.217 25.2129 169.601 26.9086 169.601 28.9091ZM165.109 28.9091C165.109 27.7254 164.941 26.7251 164.603 25.9084C164.272 25.0916 163.792 24.4731 163.165 24.0529C162.544 23.6327 161.795 23.4226 160.919 23.4226C160.049 23.4226 159.3 23.6327 158.673 24.0529C158.045 24.4731 157.563 25.0916 157.226 25.9084C156.894 26.7251 156.729 27.7254 156.729 28.9091C156.729 30.0928 156.894 31.093 157.226 31.9098C157.563 32.7266 158.045 33.3451 158.673 33.7653C159.3 34.1855 160.049 34.3956 160.919 34.3956C161.795 34.3956 162.544 34.1855 163.165 33.7653C163.792 33.3451 164.272 32.7266 164.603 31.9098C164.941 31.093 165.109 30.0928 165.109 28.9091ZM172.167 19.8182H177.609L182.226 31.0753H182.439L187.055 19.8182H192.497V38H188.218V26.8317H188.067L183.699 37.8846H180.965L176.597 26.7695H176.446V38H172.167V19.8182ZM195.238 38V19.8182H202.749C204.11 19.8182 205.285 20.0845 206.274 20.6172C207.268 21.1439 208.034 21.8808 208.573 22.8278C209.111 23.7688 209.381 24.8638 209.381 26.1126C209.381 27.3673 209.106 28.4652 208.555 29.4062C208.011 30.3414 207.232 31.0664 206.22 31.5813C205.208 32.0962 204.007 32.3537 202.616 32.3537H197.982V28.8913H201.799C202.462 28.8913 203.015 28.7759 203.459 28.5451C203.909 28.3143 204.249 27.9917 204.48 27.5774C204.711 27.1572 204.826 26.6689 204.826 26.1126C204.826 25.5503 204.711 25.065 204.48 24.6566C204.249 24.2423 203.909 23.9227 203.459 23.6978C203.009 23.4729 202.456 23.3604 201.799 23.3604H199.633V38H195.238ZM210.952 23.3871V19.8182H226.32V23.3871H220.807V38H216.474V23.3871H210.952ZM230.128 38H225.405L231.54 19.8182H237.39L243.525 38H238.802L234.532 24.3991H234.39L230.128 38ZM229.498 30.8445H239.37V34.1825H229.498V30.8445Z" fill="black"/>
<path d="M73.5 31.5824C73.5 4.35594 53.1667 -0.750559 44 0.0827747C25 0.0827747 0 16.0828 0 34.0828C0 52.0828 30 58.5828 40.5 58.0828C51 57.5828 73.5 54.582 73.5 31.5824Z" fill="url(#paint0_linear_124_316)"/>
<path d="M14 17.5H21.7629L28.348 33.5977H28.652L35.2371 17.5L43 14V53L36.8961 49V27.5293H36.6808L30.4502 43.335H26.5498L20.3192 27.4404H20.1039V43.5H14V17.5Z" fill="white"/>
<path d="M65 37.9609C64.8601 39.4259 64.436 40.8698 63.7256 42.2918C63.026 43.7137 62.0617 45.0113 60.8347 46.1855C59.6076 47.349 58.1119 48.2764 56.3466 48.9659C54.5922 49.6554 52.5792 50 50.3081 50C48.7919 50 47.3559 49.8294 46 49.492V41.5952C46.1249 41.6918 46.2524 41.7844 46.384 41.8714C47.5356 42.6147 48.8976 42.9859 50.4689 42.986C51.3515 42.986 52.1538 42.8735 52.8749 42.6473C53.6069 42.4211 54.2472 42.0921 54.7962 41.6612C55.3559 41.2196 55.8138 40.6863 56.169 40.0615C56.5349 39.426 56.7875 38.7098 56.9274 37.9128L65 37.9609Z" fill="black"/>
<path d="M50.3081 16C52.31 16 54.1612 16.2806 55.8618 16.8407C57.5625 17.3901 59.0594 18.1979 60.3511 19.2644C61.6427 20.3201 62.6915 21.6189 63.4988 23.1593C64.3059 24.6997 64.8062 26.4607 65 28.4427H56.9274C56.8198 27.6134 56.5998 26.8645 56.2662 26.1968C55.9325 25.5288 55.4903 24.9581 54.9414 24.4841C54.3925 24.0102 53.7411 23.6497 52.9877 23.402C52.2452 23.1435 51.4221 23.0141 50.5181 23.014C48.9143 23.014 47.5309 23.407 46.3684 24.1934C46.2425 24.2794 46.1196 24.3693 46 24.4637V16.5236C47.3606 16.1759 48.7965 16 50.3081 16Z" fill="black"/>
<defs>
<linearGradient id="paint0_linear_124_316" x1="9.5" y1="50.5" x2="68" y2="11" gradientUnits="userSpaceOnUse">
<stop stop-color="#02479B"/>
<stop offset="1" stop-color="#0188CC"/>
</linearGradient>
</defs>
</svg>
